<mxfile host="app.diagrams.net" agent="Mozilla/5.0 (Macintosh; Intel Mac OS X 10_15_7) AppleWebKit/605.1.15 (KHTML, like Gecko) Version/18.3.1 Safari/605.1.15" version="26.2.8">
  <diagram name="Page-1" id="2-aiPGtys2VIjtY7byo7">
    <mxGraphModel dx="1852" dy="669" grid="1" gridSize="10" guides="1" tooltips="1" connect="1" arrows="1" fold="1" page="1" pageScale="1" pageWidth="850" pageHeight="1100" math="1" shadow="0">
      <root>
        <mxCell id="0" />
        <mxCell id="1" parent="0" />
        <mxCell id="bKR5DnlnucTOBELya0a8-19" value="" style="shape=trapezoid;perimeter=trapezoidPerimeter;whiteSpace=wrap;html=1;fixedSize=1;rotation=90;" vertex="1" parent="1">
          <mxGeometry x="-502.5" y="262.5" width="120" height="155" as="geometry" />
        </mxCell>
        <mxCell id="bKR5DnlnucTOBELya0a8-20" value="Encoder" style="text;html=1;align=center;verticalAlign=middle;resizable=0;points=[];autosize=1;strokeColor=none;fillColor=none;fontSize=24;" vertex="1" parent="1">
          <mxGeometry x="-497.5" y="320" width="110" height="40" as="geometry" />
        </mxCell>
        <mxCell id="bKR5DnlnucTOBELya0a8-21" value="" style="ellipse;whiteSpace=wrap;html=1;aspect=fixed;fillColor=#f5f5f5;fontColor=#333333;strokeColor=#666666;" vertex="1" parent="1">
          <mxGeometry x="-640" y="200" width="50" height="50" as="geometry" />
        </mxCell>
        <mxCell id="bKR5DnlnucTOBELya0a8-22" value="" style="ellipse;whiteSpace=wrap;html=1;aspect=fixed;fillColor=#f5f5f5;fontColor=#333333;strokeColor=#666666;" vertex="1" parent="1">
          <mxGeometry x="-640" y="273" width="50" height="50" as="geometry" />
        </mxCell>
        <mxCell id="bKR5DnlnucTOBELya0a8-24" value="" style="ellipse;whiteSpace=wrap;html=1;aspect=fixed;fillColor=#f5f5f5;fontColor=#333333;strokeColor=#666666;" vertex="1" parent="1">
          <mxGeometry x="-640" y="417.5" width="50" height="50" as="geometry" />
        </mxCell>
        <mxCell id="bKR5DnlnucTOBELya0a8-26" value="" style="shape=waypoint;sketch=0;fillStyle=solid;size=6;pointerEvents=1;points=[];fillColor=#f5f5f5;resizable=0;rotatable=0;perimeter=centerPerimeter;snapToPoint=1;fontColor=#333333;strokeColor=#666666;" vertex="1" parent="1">
          <mxGeometry x="-625" y="340" width="20" height="20" as="geometry" />
        </mxCell>
        <mxCell id="bKR5DnlnucTOBELya0a8-27" value="" style="shape=waypoint;sketch=0;fillStyle=solid;size=6;pointerEvents=1;points=[];fillColor=#f5f5f5;resizable=0;rotatable=0;perimeter=centerPerimeter;snapToPoint=1;fontColor=#333333;strokeColor=#666666;" vertex="1" parent="1">
          <mxGeometry x="-625" y="360" width="20" height="20" as="geometry" />
        </mxCell>
        <mxCell id="bKR5DnlnucTOBELya0a8-28" value="" style="shape=waypoint;sketch=0;fillStyle=solid;size=6;pointerEvents=1;points=[];fillColor=#f5f5f5;resizable=0;rotatable=0;perimeter=centerPerimeter;snapToPoint=1;fontColor=#333333;strokeColor=#666666;" vertex="1" parent="1">
          <mxGeometry x="-625" y="380" width="20" height="20" as="geometry" />
        </mxCell>
        <mxCell id="bKR5DnlnucTOBELya0a8-29" value="" style="endArrow=none;html=1;rounded=0;exitX=1;exitY=0.5;exitDx=0;exitDy=0;entryX=0.5;entryY=1;entryDx=0;entryDy=0;" edge="1" parent="1" source="bKR5DnlnucTOBELya0a8-21" target="bKR5DnlnucTOBELya0a8-19">
          <mxGeometry width="50" height="50" relative="1" as="geometry">
            <mxPoint x="-320" y="430" as="sourcePoint" />
            <mxPoint x="-270" y="380" as="targetPoint" />
          </mxGeometry>
        </mxCell>
        <mxCell id="bKR5DnlnucTOBELya0a8-30" value="" style="endArrow=none;html=1;rounded=0;exitX=1;exitY=0.5;exitDx=0;exitDy=0;" edge="1" parent="1" source="bKR5DnlnucTOBELya0a8-22">
          <mxGeometry width="50" height="50" relative="1" as="geometry">
            <mxPoint x="-320" y="430" as="sourcePoint" />
            <mxPoint x="-520" y="340" as="targetPoint" />
          </mxGeometry>
        </mxCell>
        <mxCell id="bKR5DnlnucTOBELya0a8-31" value="" style="endArrow=none;html=1;rounded=0;exitX=1;exitY=0.5;exitDx=0;exitDy=0;" edge="1" parent="1" source="bKR5DnlnucTOBELya0a8-24">
          <mxGeometry width="50" height="50" relative="1" as="geometry">
            <mxPoint x="-320" y="430" as="sourcePoint" />
            <mxPoint x="-520" y="340" as="targetPoint" />
          </mxGeometry>
        </mxCell>
        <mxCell id="bKR5DnlnucTOBELya0a8-32" value="" style="ellipse;whiteSpace=wrap;html=1;aspect=fixed;fillColor=#fff2cc;strokeColor=#d6b656;" vertex="1" parent="1">
          <mxGeometry x="-320" y="163.5" width="50" height="50" as="geometry" />
        </mxCell>
        <mxCell id="bKR5DnlnucTOBELya0a8-33" value="" style="ellipse;whiteSpace=wrap;html=1;aspect=fixed;fillColor=#fff2cc;strokeColor=#d6b656;" vertex="1" parent="1">
          <mxGeometry x="-320" y="236.5" width="50" height="50" as="geometry" />
        </mxCell>
        <mxCell id="bKR5DnlnucTOBELya0a8-34" value="" style="ellipse;whiteSpace=wrap;html=1;aspect=fixed;fillColor=#fff2cc;strokeColor=#d6b656;" vertex="1" parent="1">
          <mxGeometry x="-320" y="381" width="50" height="50" as="geometry" />
        </mxCell>
        <mxCell id="bKR5DnlnucTOBELya0a8-35" value="" style="ellipse;whiteSpace=wrap;html=1;aspect=fixed;fillColor=#fff2cc;strokeColor=#d6b656;" vertex="1" parent="1">
          <mxGeometry x="-320" y="454" width="50" height="50" as="geometry" />
        </mxCell>
        <mxCell id="bKR5DnlnucTOBELya0a8-37" value="" style="rounded=0;whiteSpace=wrap;html=1;dashed=1;dashPattern=8 8;fillColor=none;strokeColor=#d6b656;" vertex="1" parent="1">
          <mxGeometry x="-330" y="367.5" width="70" height="150" as="geometry" />
        </mxCell>
        <mxCell id="bKR5DnlnucTOBELya0a8-38" value="" style="rounded=0;whiteSpace=wrap;html=1;dashed=1;dashPattern=8 8;fillColor=none;strokeColor=#d6b656;" vertex="1" parent="1">
          <mxGeometry x="-330" y="150" width="70" height="150" as="geometry" />
        </mxCell>
        <mxCell id="bKR5DnlnucTOBELya0a8-41" value="" style="ellipse;whiteSpace=wrap;html=1;aspect=fixed;fillColor=#d5e8d4;strokeColor=#82b366;" vertex="1" parent="1">
          <mxGeometry x="-200" y="279" width="50" height="50" as="geometry" />
        </mxCell>
        <mxCell id="bKR5DnlnucTOBELya0a8-42" value="" style="ellipse;whiteSpace=wrap;html=1;aspect=fixed;fillColor=#d5e8d4;strokeColor=#82b366;" vertex="1" parent="1">
          <mxGeometry x="-200" y="352" width="50" height="50" as="geometry" />
        </mxCell>
        <mxCell id="bKR5DnlnucTOBELya0a8-43" value="" style="rounded=0;whiteSpace=wrap;html=1;dashed=1;dashPattern=8 8;fillColor=none;strokeColor=#82b366;" vertex="1" parent="1">
          <mxGeometry x="-210" y="265" width="70" height="150" as="geometry" />
        </mxCell>
        <mxCell id="bKR5DnlnucTOBELya0a8-44" value="" style="shape=trapezoid;perimeter=trapezoidPerimeter;whiteSpace=wrap;html=1;fixedSize=1;rotation=90;flipV=1;" vertex="1" parent="1">
          <mxGeometry x="-60" y="260" width="120" height="155" as="geometry" />
        </mxCell>
        <mxCell id="bKR5DnlnucTOBELya0a8-45" value="Decoder" style="text;html=1;align=center;verticalAlign=middle;resizable=0;points=[];autosize=1;strokeColor=none;fillColor=none;fontSize=24;" vertex="1" parent="1">
          <mxGeometry x="-55" y="317.5" width="110" height="40" as="geometry" />
        </mxCell>
        <mxCell id="bKR5DnlnucTOBELya0a8-46" value="" style="ellipse;whiteSpace=wrap;html=1;aspect=fixed;fillColor=#d5e8d4;strokeColor=#82b366;" vertex="1" parent="1">
          <mxGeometry x="130" y="200" width="50" height="50" as="geometry" />
        </mxCell>
        <mxCell id="bKR5DnlnucTOBELya0a8-47" value="" style="ellipse;whiteSpace=wrap;html=1;aspect=fixed;fillColor=#d5e8d4;strokeColor=#82b366;" vertex="1" parent="1">
          <mxGeometry x="130" y="273" width="50" height="50" as="geometry" />
        </mxCell>
        <mxCell id="bKR5DnlnucTOBELya0a8-48" value="" style="ellipse;whiteSpace=wrap;html=1;aspect=fixed;fillColor=#d5e8d4;strokeColor=#82b366;" vertex="1" parent="1">
          <mxGeometry x="130" y="417.5" width="50" height="50" as="geometry" />
        </mxCell>
        <mxCell id="bKR5DnlnucTOBELya0a8-49" value="" style="shape=waypoint;sketch=0;fillStyle=solid;size=6;pointerEvents=1;points=[];fillColor=#d5e8d4;resizable=0;rotatable=0;perimeter=centerPerimeter;snapToPoint=1;strokeColor=#82b366;" vertex="1" parent="1">
          <mxGeometry x="145" y="340" width="20" height="20" as="geometry" />
        </mxCell>
        <mxCell id="bKR5DnlnucTOBELya0a8-50" value="" style="shape=waypoint;sketch=0;fillStyle=solid;size=6;pointerEvents=1;points=[];fillColor=#d5e8d4;resizable=0;rotatable=0;perimeter=centerPerimeter;snapToPoint=1;strokeColor=#82b366;" vertex="1" parent="1">
          <mxGeometry x="145" y="360" width="20" height="20" as="geometry" />
        </mxCell>
        <mxCell id="bKR5DnlnucTOBELya0a8-51" value="" style="shape=waypoint;sketch=0;fillStyle=solid;size=6;pointerEvents=1;points=[];fillColor=#d5e8d4;resizable=0;rotatable=0;perimeter=centerPerimeter;snapToPoint=1;strokeColor=#82b366;" vertex="1" parent="1">
          <mxGeometry x="145" y="380" width="20" height="20" as="geometry" />
        </mxCell>
        <mxCell id="bKR5DnlnucTOBELya0a8-52" value="" style="endArrow=none;html=1;rounded=0;entryX=0.5;entryY=0;entryDx=0;entryDy=0;exitX=0;exitY=0.5;exitDx=0;exitDy=0;" edge="1" parent="1" source="bKR5DnlnucTOBELya0a8-34" target="bKR5DnlnucTOBELya0a8-19">
          <mxGeometry width="50" height="50" relative="1" as="geometry">
            <mxPoint x="-360" y="430" as="sourcePoint" />
            <mxPoint x="-370" y="380" as="targetPoint" />
          </mxGeometry>
        </mxCell>
        <mxCell id="bKR5DnlnucTOBELya0a8-53" value="" style="endArrow=none;html=1;rounded=0;entryX=0.5;entryY=0;entryDx=0;entryDy=0;exitX=0;exitY=0.5;exitDx=0;exitDy=0;" edge="1" parent="1" source="bKR5DnlnucTOBELya0a8-35" target="bKR5DnlnucTOBELya0a8-19">
          <mxGeometry width="50" height="50" relative="1" as="geometry">
            <mxPoint x="-420" y="430" as="sourcePoint" />
            <mxPoint x="-370" y="380" as="targetPoint" />
          </mxGeometry>
        </mxCell>
        <mxCell id="bKR5DnlnucTOBELya0a8-54" value="" style="endArrow=none;html=1;rounded=0;entryX=0;entryY=0.5;entryDx=0;entryDy=0;exitX=0.5;exitY=0;exitDx=0;exitDy=0;" edge="1" parent="1" source="bKR5DnlnucTOBELya0a8-19" target="bKR5DnlnucTOBELya0a8-33">
          <mxGeometry width="50" height="50" relative="1" as="geometry">
            <mxPoint x="-420" y="370" as="sourcePoint" />
            <mxPoint x="-380" y="250" as="targetPoint" />
          </mxGeometry>
        </mxCell>
        <mxCell id="bKR5DnlnucTOBELya0a8-55" value="" style="endArrow=none;html=1;rounded=0;exitX=0.5;exitY=0;exitDx=0;exitDy=0;entryX=0;entryY=0.5;entryDx=0;entryDy=0;" edge="1" parent="1" source="bKR5DnlnucTOBELya0a8-19" target="bKR5DnlnucTOBELya0a8-32">
          <mxGeometry width="50" height="50" relative="1" as="geometry">
            <mxPoint x="-420" y="280" as="sourcePoint" />
            <mxPoint x="-370" y="230" as="targetPoint" />
          </mxGeometry>
        </mxCell>
        <mxCell id="bKR5DnlnucTOBELya0a8-57" value="" style="endArrow=none;html=1;rounded=0;entryX=1;entryY=0.5;entryDx=0;entryDy=0;exitX=0;exitY=0.5;exitDx=0;exitDy=0;" edge="1" parent="1" source="bKR5DnlnucTOBELya0a8-41" target="bKR5DnlnucTOBELya0a8-32">
          <mxGeometry width="50" height="50" relative="1" as="geometry">
            <mxPoint x="-200" y="380" as="sourcePoint" />
            <mxPoint x="-150" y="330" as="targetPoint" />
          </mxGeometry>
        </mxCell>
        <mxCell id="bKR5DnlnucTOBELya0a8-58" value="" style="endArrow=none;html=1;rounded=0;exitX=1;exitY=0.5;exitDx=0;exitDy=0;entryX=0;entryY=0.5;entryDx=0;entryDy=0;" edge="1" parent="1" source="bKR5DnlnucTOBELya0a8-33" target="bKR5DnlnucTOBELya0a8-42">
          <mxGeometry width="50" height="50" relative="1" as="geometry">
            <mxPoint x="-200" y="380" as="sourcePoint" />
            <mxPoint x="-150" y="330" as="targetPoint" />
          </mxGeometry>
        </mxCell>
        <mxCell id="bKR5DnlnucTOBELya0a8-59" value="" style="endArrow=none;html=1;rounded=0;exitX=1;exitY=0.5;exitDx=0;exitDy=0;entryX=0;entryY=0.5;entryDx=0;entryDy=0;" edge="1" parent="1" source="bKR5DnlnucTOBELya0a8-34" target="bKR5DnlnucTOBELya0a8-41">
          <mxGeometry width="50" height="50" relative="1" as="geometry">
            <mxPoint x="-200" y="380" as="sourcePoint" />
            <mxPoint x="-150" y="330" as="targetPoint" />
          </mxGeometry>
        </mxCell>
        <mxCell id="bKR5DnlnucTOBELya0a8-60" value="" style="endArrow=none;html=1;rounded=0;exitX=1;exitY=0.5;exitDx=0;exitDy=0;entryX=0;entryY=0.5;entryDx=0;entryDy=0;" edge="1" parent="1" source="bKR5DnlnucTOBELya0a8-35" target="bKR5DnlnucTOBELya0a8-42">
          <mxGeometry width="50" height="50" relative="1" as="geometry">
            <mxPoint x="-200" y="380" as="sourcePoint" />
            <mxPoint x="-150" y="330" as="targetPoint" />
          </mxGeometry>
        </mxCell>
        <mxCell id="bKR5DnlnucTOBELya0a8-61" value="" style="endArrow=none;html=1;rounded=0;entryX=0.5;entryY=1;entryDx=0;entryDy=0;exitX=1;exitY=0.5;exitDx=0;exitDy=0;" edge="1" parent="1" source="bKR5DnlnucTOBELya0a8-42" target="bKR5DnlnucTOBELya0a8-44">
          <mxGeometry width="50" height="50" relative="1" as="geometry">
            <mxPoint x="-220" y="410" as="sourcePoint" />
            <mxPoint x="-170" y="360" as="targetPoint" />
          </mxGeometry>
        </mxCell>
        <mxCell id="bKR5DnlnucTOBELya0a8-62" value="" style="endArrow=none;html=1;rounded=0;exitX=1;exitY=0.5;exitDx=0;exitDy=0;" edge="1" parent="1" source="bKR5DnlnucTOBELya0a8-41">
          <mxGeometry width="50" height="50" relative="1" as="geometry">
            <mxPoint x="-220" y="410" as="sourcePoint" />
            <mxPoint x="-80" y="340" as="targetPoint" />
          </mxGeometry>
        </mxCell>
        <mxCell id="bKR5DnlnucTOBELya0a8-63" value="" style="endArrow=none;html=1;rounded=0;entryX=0;entryY=0.5;entryDx=0;entryDy=0;exitX=0.5;exitY=0;exitDx=0;exitDy=0;" edge="1" parent="1" source="bKR5DnlnucTOBELya0a8-44" target="bKR5DnlnucTOBELya0a8-46">
          <mxGeometry width="50" height="50" relative="1" as="geometry">
            <mxPoint x="-220" y="410" as="sourcePoint" />
            <mxPoint x="-170" y="360" as="targetPoint" />
          </mxGeometry>
        </mxCell>
        <mxCell id="bKR5DnlnucTOBELya0a8-64" value="" style="endArrow=none;html=1;rounded=0;entryX=0;entryY=0.5;entryDx=0;entryDy=0;exitX=0.5;exitY=0;exitDx=0;exitDy=0;" edge="1" parent="1" source="bKR5DnlnucTOBELya0a8-44" target="bKR5DnlnucTOBELya0a8-47">
          <mxGeometry width="50" height="50" relative="1" as="geometry">
            <mxPoint x="-220" y="410" as="sourcePoint" />
            <mxPoint x="-170" y="360" as="targetPoint" />
          </mxGeometry>
        </mxCell>
        <mxCell id="bKR5DnlnucTOBELya0a8-65" value="" style="endArrow=none;html=1;rounded=0;entryX=0;entryY=0.5;entryDx=0;entryDy=0;exitX=0.5;exitY=0;exitDx=0;exitDy=0;" edge="1" parent="1" source="bKR5DnlnucTOBELya0a8-44" target="bKR5DnlnucTOBELya0a8-48">
          <mxGeometry width="50" height="50" relative="1" as="geometry">
            <mxPoint x="-220" y="410" as="sourcePoint" />
            <mxPoint x="-170" y="360" as="targetPoint" />
          </mxGeometry>
        </mxCell>
        <mxCell id="bKR5DnlnucTOBELya0a8-66" value="" style="rounded=0;whiteSpace=wrap;html=1;fillColor=none;fontColor=#333333;strokeColor=#666666;dashed=1;dashPattern=12 12;" vertex="1" parent="1">
          <mxGeometry x="-650" y="190" width="70" height="290" as="geometry" />
        </mxCell>
        <mxCell id="bKR5DnlnucTOBELya0a8-67" value="$$x$$" style="text;html=1;align=center;verticalAlign=middle;resizable=0;points=[];autosize=1;strokeColor=none;fillColor=none;fontSize=24;fontColor=#666666;" vertex="1" parent="1">
          <mxGeometry x="-660" y="145" width="90" height="40" as="geometry" />
        </mxCell>
        <mxCell id="bKR5DnlnucTOBELya0a8-69" value="" style="rounded=0;whiteSpace=wrap;html=1;fillColor=none;strokeColor=#82b366;dashed=1;dashPattern=12 12;" vertex="1" parent="1">
          <mxGeometry x="120" y="192.5" width="70" height="290" as="geometry" />
        </mxCell>
        <mxCell id="bKR5DnlnucTOBELya0a8-70" value="&lt;font style=&quot;font-size: 24px;&quot;&gt;$$\hat{x}$$&lt;/font&gt;" style="text;html=1;align=center;verticalAlign=middle;resizable=0;points=[];autosize=1;strokeColor=none;fillColor=none;" vertex="1" parent="1">
          <mxGeometry x="90" y="152.5" width="140" height="40" as="geometry" />
        </mxCell>
        <mxCell id="bKR5DnlnucTOBELya0a8-71" value="&lt;font style=&quot;font-size: 24px;&quot;&gt;$$\mu (x)$$&lt;/font&gt;" style="text;html=1;align=center;verticalAlign=middle;resizable=0;points=[];autosize=1;strokeColor=none;fillColor=none;" vertex="1" parent="1">
          <mxGeometry x="-370" y="105" width="150" height="40" as="geometry" />
        </mxCell>
        <mxCell id="bKR5DnlnucTOBELya0a8-72" value="&lt;font style=&quot;font-size: 24px;&quot;&gt;$$\log(\sigma (x))$$&lt;/font&gt;" style="text;html=1;align=center;verticalAlign=middle;resizable=0;points=[];autosize=1;strokeColor=none;fillColor=none;" vertex="1" parent="1">
          <mxGeometry x="-405" y="323" width="240" height="40" as="geometry" />
        </mxCell>
        <mxCell id="bKR5DnlnucTOBELya0a8-73" value="&lt;font size=&quot;5&quot;&gt;$$z \sim \mathcal{N}(\mu, \sigma)$$&lt;/font&gt;" style="text;html=1;align=center;verticalAlign=middle;resizable=0;points=[];autosize=1;strokeColor=none;fillColor=none;" vertex="1" parent="1">
          <mxGeometry x="-370" y="210" width="410" height="40" as="geometry" />
        </mxCell>
      </root>
    </mxGraphModel>
  </diagram>
</mxfile>
